<?xml version="1.0" encoding="utf-8"?>
<!-- Generator: Adobe Illustrator 24.0.2, SVG Export Plug-In . SVG Version: 6.00 Build 0)  -->
<svg version="1.1" id="Layer_1" xmlns="http://www.w3.org/2000/svg" xmlns:xlink="http://www.w3.org/1999/xlink" x="0px" y="0px"
	 viewBox="0 0 612 792" style="enable-background:new 0 0 612 792;" xml:space="preserve">
<style type="text/css">
	.st0{fill:#B18C2E;}
</style>
<path id="facebook" class="st0" d="M306.38,376.07c-10.89,0-19.71,8.83-19.71,19.71s8.83,19.71,19.71,19.71
	c10.89,0,19.71-8.83,19.71-19.71C326.07,384.9,317.26,376.08,306.38,376.07z M306.38,379.35c9.07,0,16.42,7.35,16.42,16.42
	c0,8.12-5.94,15.03-13.97,16.24v-11.44h4.68l0.74-4.75h-5.41v-2.6c0-1.97,0.65-3.73,2.49-3.73h2.96v-4.14
	c-1.23-0.17-2.47-0.24-3.7-0.23c-4.35,0-6.9,2.3-6.9,7.53v3.16h-4.47v4.75h4.47v11.4c-8.94-1.49-14.99-9.94-13.5-18.89
	C291.49,385.16,298.34,379.35,306.38,379.35L306.38,379.35z"/>
</svg>
