<svg id="Layer_1" data-name="Layer 1" xmlns="http://www.w3.org/2000/svg" viewBox="0 0 100 100"><defs><style>.cls-1{fill:#b18c2e;}</style></defs><title>InstagramIcon</title><path id="instagram" class="cls-1" d="M29.4,0A29.53,29.53,0,0,0,0,29.41V70.6A29.54,29.54,0,0,0,29.4,100H70.59A29.54,29.54,0,0,0,100,70.6V29.41A29.53,29.53,0,0,0,70.59,0Zm0,9.1H70.59a20.25,20.25,0,0,1,20.3,20.25V70.6A20.25,20.25,0,0,1,70.64,90.9H29.4A20.3,20.3,0,0,1,9.1,70.62V29.39A20.31,20.31,0,0,1,29.38,9.08S29.4,9.11,29.4,9.11ZM76.83,19A4.13,4.13,0,1,0,81,23.17,4.06,4.06,0,0,0,76.88,19s0,0,0,0ZM50,22.71A27.28,27.28,0,1,0,77.29,50,27.28,27.28,0,0,0,50,22.71Zm0,9.1a18.09,18.09,0,1,1-.18,0Z"/></svg>