<?xml version="1.0" encoding="utf-8"?>
<!-- Generator: Adobe Illustrator 24.0.2, SVG Export Plug-In . SVG Version: 6.00 Build 0)  -->
<svg version="1.1" id="Layer_1" xmlns="http://www.w3.org/2000/svg" xmlns:xlink="http://www.w3.org/1999/xlink" x="0px" y="0px"
	 viewBox="0 0 612 792" style="enable-background:new 0 0 612 792;" xml:space="preserve">
<style type="text/css">
	.st0{fill:#B18C2E;}
</style>
<path id="instagram" class="st0" d="M298.23,376.01c-6.41,0.03-11.6,5.22-11.63,11.63v16.29c0.03,6.41,5.22,11.6,11.63,11.63h16.29
	c6.41-0.03,11.6-5.22,11.63-11.63v-16.29c-0.03-6.41-5.22-11.6-11.63-11.63H298.23z M298.23,379.61h16.29
	c4.43-0.01,8.03,3.58,8.03,8.01c0,0.01,0,0.01,0,0.02v16.29c0.01,4.43-3.58,8.03-8.01,8.03c-0.01,0-0.01,0-0.02,0h-16.29
	c-4.43,0-8.03-3.59-8.03-8.02c0-0.01,0-0.01,0-0.02v-16.29c0-4.43,3.59-8.03,8.02-8.03C298.22,379.61,298.23,379.61,298.23,379.61z
	 M316.99,383.54c-0.9,0-1.63,0.73-1.63,1.63c0,0.9,0.73,1.63,1.63,1.63c0.9,0,1.63-0.73,1.63-1.63c0.01-0.9-0.71-1.63-1.61-1.63
	C317.01,383.53,317,383.53,316.99,383.54L316.99,383.54z M306.38,384.99c-5.96,0-10.79,4.83-10.79,10.79
	c0,5.96,4.83,10.79,10.79,10.79s10.79-4.83,10.79-10.79C317.15,389.83,312.33,385.01,306.38,384.99z M306.38,388.59
	c3.97,0,7.19,3.22,7.19,7.19c0,3.97-3.22,7.19-7.19,7.19c-3.97,0-7.19-3.22-7.19-7.19c-0.02-3.95,3.17-7.18,7.12-7.19
	C306.33,388.59,306.35,388.59,306.38,388.59L306.38,388.59z"/>
</svg>
