<svg id="Layer_1" data-name="Layer 1" xmlns="http://www.w3.org/2000/svg" viewBox="0 0 100 100">
<defs>
<style>
.cls-1{fill:#b18c2e;}
</style>
</defs>
<title>LinkedInIcon
</title>
<path 
id="linkedin" 
class="cls-1" 
d="M11.37,0A11.45,11.45,0,0,0,0,11.37V88.63A11.45,11.45,0,0,0,11.37,100H88.63A11.45,11.45,0,0,0,100,88.63V11.37A11.46,11.46,0,0,0,88.63,0Zm0,9.1H88.63a2.2,2.2,0,0,1,2.27,2.17V88.63a2.21,2.21,0,0,1-2.17,2.28H11.37a2.23,2.23,0,0,1-2.28-2.18V11.37A2.21,2.21,0,0,1,11.27,9.1Zm13.36,7.81a7.81,7.81,0,1,0,7.81,7.8h0a7.79,7.79,0,0,0-7.81-7.8Zm41,20.74a13.94,13.94,0,0,0-12.63,7h-.28v-6H40.07V81.84H53.41V60.54c0-5.64,1.11-11.09,8.08-11.09s7,6.36,7,11.37v21H81.81V58.11C81.83,46.49,79.36,37.65,65.76,37.65Zm-47.57,1V81.81H31.68V38.63Z"/>
</svg>