<?xml version="1.0" encoding="utf-8"?>
<!-- Generator: Adobe Illustrator 24.0.2, SVG Export Plug-In . SVG Version: 6.00 Build 0)  -->
<svg version="1.1" id="Layer_1" xmlns="http://www.w3.org/2000/svg" xmlns:xlink="http://www.w3.org/1999/xlink" x="0px" y="0px"
	 viewBox="0 0 612 792" style="enable-background:new 0 0 612 792;" xml:space="preserve">
<style type="text/css">
	.st0{fill:#B18C2E;}
</style>
<path id="linkedin" class="st0" d="M108.91,120.84c-2.48,0.02-4.48,2.02-4.5,4.5v30.58c0.02,2.48,2.02,4.48,4.5,4.5h30.58
	c2.48-0.02,4.48-2.02,4.5-4.5v-30.58c-0.02-2.48-2.02-4.48-4.5-4.5H108.91z M108.91,124.44h30.58c0.49-0.01,0.89,0.37,0.9,0.86
	c0,0.01,0,0.03,0,0.04v30.58c0.01,0.49-0.37,0.89-0.86,0.9c-0.01,0-0.03,0-0.04,0h-30.58c-0.49,0.01-0.89-0.37-0.9-0.86
	c0-0.01,0-0.03,0-0.04v-30.58c-0.01-0.49,0.37-0.89,0.86-0.9C108.88,124.44,108.9,124.44,108.91,124.44z M114.2,127.53
	c-1.71,0-3.09,1.38-3.09,3.09s1.38,3.09,3.09,3.09s3.09-1.38,3.09-3.09l0,0C117.29,128.91,115.91,127.53,114.2,127.53
	C114.2,127.53,114.2,127.53,114.2,127.53L114.2,127.53z M130.44,135.74c-2.05-0.08-3.97,0.98-5,2.76h-0.11v-2.36h-5.06v17.09h5.28
	v-8.43c0-2.23,0.44-4.39,3.2-4.39c2.72,0,2.76,2.52,2.76,4.5v8.32h5.28v-9.39C136.8,139.24,135.82,135.74,130.44,135.74z
	 M111.61,136.13v17.09h5.34v-17.09H111.61z"/>
</svg>
